{
  "title": "San Andreas 2015 2160p UHD 4K Blu-ray x265 DTSHD En TrueHD Fr 7.",
  "uid": 15577554,
  "size": 30649586411,
  "categoryP": "video",
  "categoryS": "hd___movies",
  "magnet": "?xt=urn:btih:42b00ffa64c5a1054f7673cca9faa3ed2fd2ac99&amp;dn=San+Andreas+2015+2160p+UHD+4K+Blu-ray+x265+DTSHD+En+TrueHD+Fr+7.&amp;tr=udp%3A%2F%2Ftracker.leechers-paradise.org%3A6969&amp;tr=udp%3A%2F%2Fzer0day.ch%3A1337&amp;tr=udp%3A%2F%2Fopen.demonii.com%3A1337&amp;tr=udp%3A%2F%2Ftracker.coppersurfer.tk%3A6969&amp;tr=udp%3A%2F%2Fexodus.desync.com%3A6969",
  "seeders": 37,
  "leechers": 50,
  "uploader": "SaM",
  "files": 3,
  "time": 1471360286,
  "description": "- HollyWooD Movie-\r\n\r\nSan Andreas\r\n\r\n** 2015 **\r\nUHD 2160p / Blu-ray 4K Rip / HEVC x265\r\nEnglish DTS-HDMA 7.1\r\nFrench Dolby Atmos 7.1\r\nHindi AC3 5.1\r\n\r\n\r\nEnglish &amp; French subs\r\n\r\nRecommended configuration for PC playback Latest Fast I7 or Xeon CPU &amp; GPU + &gt; 8GB of DRAM\r\nPlay tested on PC with ASUS 4K + Nvidia GTX980 with Potplayer &amp; MPC-HD\r\n\r\n(*** VLC will not play this rip ***)\r\n\r\nTV Playback tested on:\r\n- Samsung SUHD 4K TV\r\n\r\n \nhttp://extraimago.com/image/wcaq \nhttp://extraimago.com/image/wcay \nhttp://extraimago.com/image/wcaL \nhttp://extraimago.com/image/wcaQ \nhttp://extraimago.com/image/wcaR \nhttp://extraimago.com/image/wcai \nhttp://extraimago.com/image/wcal \nhttp://extraimago.com/image/wcaI \nhttp://extraimago.com/image/wcad\r\n\r\nSource : Fr UHD 4K Blu-ray ripped with HDFury by Zeus\r\n\r\nFile size : 28.3 GiB\r\nDuration : 1h 54mn\r\nOverall bit rate mode : Variable\r\nOverall bit rate : 35.4 Mbps\r\n\r\n[B]Video\r\nFormat : HEVC\r\nFormat/Info : High Efficiency Video Coding\r\nFormat profile :   @Main\r\nCodec ID : V_MPEGH/ISO/HEVC\r\nDuration : 1h 54mn\r\nBit rate : 24.8 Mbps\r\nWidth : 3 840 pixels\r\nHeight : 1 598 pixels\r\nDisplay aspect ratio : 2.40:1\r\nFrame rate mode : Constant\r\nFrame rate : 23.976 (24000/1001) fps\r\ncolor space : YUV\r\nChroma subsampling : 4:2:0\r\nBit depth : 8 bits\r\nBits/(Pixel*Frame) : 0.169\r\nStream size : 19.8 GiB (70%)\r\nLanguage : English\r\nDefault : Yes\r\nForced : No\r\ncolor range : Limited\r\ncolor primaries : BT.709\r\nTransfer characteristics : BT.709\r\nMatrix coefficients : BT.709\r\n\r\nAudio\r\nAudio #1\r\nFormat : AC-3\r\nFormat/Info : Audio Coding 3\r\nMode extension : CM (complete main)\r\nFormat settings, Endianness : Big\r\nCodec ID : A_AC3\r\nDuration : 1h 54mn\r\nBit rate mode : Constant\r\nBit rate : 384 Kbps\r\nChannel(s) : 6 channels\r\nChannel positions : Front: L C R, Side: L R, LFE\r\nSampling rate : 48.0 KHz\r\nFrame rate : 31.250 fps (1536 spf)\r\nCompression mode : Lossy\r\nDelay relative to video : -75ms\r\nStream size : 314 MiB (1%)\r\nTitle : VFF AC-3 @ 384 kbps 5.1\r\nLanguage : French\r\nDefault : Yes\r\nForced : No\r\n\r\nAudio #2\r\nID : 3\r\nFormat : DTS\r\nFormat/Info : Digital Theater Systems\r\nFormat profile : MA / Core\r\nMode : 16\r\nFormat settings, Endianness : Big\r\nCodec ID : A_DTS\r\nDuration : 1h 54mn\r\nBit rate mode : Variable / Constant\r\nBit rate : 4 431 Kbps / 1 509 Kbps\r\nChannel(s) : 8 channels / 6 channels\r\nChannel positions : Front: L C R, Side: L R, Back: L R, LFE / Front: L C R, Side: L R, LFE\r\nSampling rate : 48.0 KHz\r\nFrame rate : 93.750 fps (512 spf)\r\nBit depth : 24 bits\r\nCompression mode : Lossless / Lossy\r\nDelay relative to video : -79ms\r\nStream size : 3.54 GiB (13%)\r\nTitle : DTS-HDMA 7.1 English\r\nLanguage : English\r\nDefault : No\r\nForced : No\r\n\r\nAudio #3\r\nID : 4\r\nFormat : Atmos / TrueHD\r\nCodec ID : A_TRUEHD\r\nDuration : 1h 54mn\r\nBit rate mode : Variable\r\nBit rate : 5 253 Kbps\r\nMaximum bit rate : 8 682 Kbps\r\nChannel(s) : Object Based / 8 channels\r\nChannel positions : Object Based / Front: L C R, Side: L R, Back: L R, LFE\r\nSampling rate : / 48.0 KHz\r\nFrame rate : 1 200.000 fps (40 spf)\r\nCompression mode : Lossless\r\nDelay relative to video : -83ms\r\nStream size : 4.20 GiB (15%)\r\nTitle : VFF TrueHD ATMOS 7.1\r\nLanguage : French\r\nDefault : No\r\nForced : No\r\n\r\nAudio #4\r\nID : 5\r\nFormat : AC-3\r\nFormat/Info : Audio Coding 3\r\nMode extension : CM (complete main)\r\nFormat settings, Endianness : Big\r\nCodec ID : A_AC3\r\nDuration : 1h 54mn\r\nBit rate mode : Constant\r\nBit rate : 448 Kbps\r\nChannel(s) : 6 channels\r\nChannel positions : Front: L C R, Side: L R, LFE\r\nSampling rate : 48.0 KHz\r\nFrame rate : 31.250 fps (1536 spf)\r\nCompression mode : Lossy\r\nDelay relative to video : -79ms\r\nStream size : 367 MiB (1%)\r\nLanguage : Hindi\r\nDefault : No\r\nForced : No\r\n\r\nText #1\r\nID : 6\r\nFormat : UTF-8\r\nCodec ID : S_TEXT/UTF8\r\nCodec ID/Info : UTF-8 Plain Text\r\nDuration : 1h 53mn\r\nBit rate : 0 bps\r\nCount of elements : 10\r\nStream size : 326 Bytes (0%)\r\nTitle : Sous-titres Francais forcé\r\nLanguage : French\r\nDefault : Yes\r\nForced : No\r\n\r\nText #2\r\nID : 7\r\nFormat : VobSub\r\nMuxing mode : zlib\r\nCodec ID : S_VOBSUB\r\nCodec ID/Info : Picture based subtitle format used on DVDs\r\nDuration : 1h 52mn\r\nBit rate : 5 047 bps\r\nCount of elements : 1487\r\nStream size : 4.07 MiB (0%)\r\nTitle : English Sub\r\nLanguage : English\r\nDefault : No\r\nForced : No\r\n\r\nChapters = YES\r\nSample : Included",
  "parsed": {
    "xt": "urn:btih:42b00ffa64c5a1054f7673cca9faa3ed2fd2ac99",
    "dn": "San Andreas 2015 2160p UHD 4K Blu-ray x265 DTSHD En TrueHD Fr 7.",
    "tr": [
      "udp://exodus.desync.com:6969",
      "udp://open.demonii.com:1337",
      "udp://tracker.coppersurfer.tk:6969",
      "udp://tracker.leechers-paradise.org:6969",
      "udp://zer0day.ch:1337"
    ],
    "infoHash": "42b00ffa64c5a1054f7673cca9faa3ed2fd2ac99",
    "infoHashBuffer": {
      "type": "Buffer",
      "data": [
        66,
        176,
        15,
        250,
        100,
        197,
        161,
        5,
        79,
        118,
        115,
        204,
        169,
        250,
        163,
        237,
        47,
        210,
        172,
        153
      ]
    },
    "name": "San Andreas 2015 2160p UHD 4K Blu-ray x265 DTSHD En TrueHD Fr 7.",
    "announce": [
      "udp://exodus.desync.com:6969",
      "udp://open.demonii.com:1337",
      "udp://tracker.coppersurfer.tk:6969",
      "udp://tracker.leechers-paradise.org:6969",
      "udp://zer0day.ch:1337"
    ],
    "urlList": []
  },
  "previous": 100,
  "peers": 150,
  "last_updated": "2016-12-26T22:34:34.647Z"
}